<?xml version="1.0" encoding="utf-8"?>
<svg viewBox="0 0 43 44" xmlns="http://www.w3.org/2000/svg">
  <defs>
    <clipPath id="a">
      <path fill="#fff" d="M0 0h128v26H0z"/>
    </clipPath>
  </defs>
  <rect x="0.194" y="0.355" width="43.048" height="43.984" style="fill: rgb(252, 166, 22);"/>
  <g clip-path="url(#a)" fill="currentColor" transform="matrix(1.24481999874115, 0, 0, 1.24481999874115, 7.492025010168959, 5.680537308462505)" style="">
    <path d="M 4.975 25.081 C 5.229 23.884 5.471 22.726 5.703 21.606 C 5.896 20.674 6.111 19.64 6.35 18.506 L 6.496 17.812 L 7.676 12.104 L 12.2 12.104 L 12.993 8.327 L 8.265 8.327 L 8.414 7.58 L 8.579 6.749 C 8.755 5.887 9.075 5.241 9.538 4.809 C 10.001 4.379 10.64 4.163 11.455 4.163 C 11.918 4.163 12.375 4.219 12.827 4.331 C 13.279 4.443 13.709 4.6 14.117 4.801 L 15.307 0.772 C 14.909 0.6 14.497 0.463 14.075 0.361 C 13.588 0.24 13.094 0.15 12.595 0.092 C 12.08 0.031 11.562 0 11.043 0 C 10.227 0 9.445 0.098 8.696 0.294 C 7.954 0.486 7.258 0.822 6.646 1.284 C 6.029 1.749 5.492 2.378 5.034 3.173 C 4.577 3.968 4.227 4.958 3.984 6.144 L 3.48 8.587 L 3.533 8.327 L 0.793 8.327 L 0 12.104 L 2.744 12.104 L 2.704 12.297 C 2.63 12.645 2.558 12.991 2.487 13.332 L 2.38 13.842 L 1.9 16.15 L 1.554 17.829 C 1.295 19.086 1.033 20.342 0.769 21.598 C 0.524 22.758 0.284 23.919 0.049 25.081 L 4.975 25.081 Z M 19.047 8.294 L 18.575 9.508 L 20.785 11.063 C 20.905 11.146 20.968 11.301 20.951 11.458 L 20.943 11.504 L 20.794 12.185 C 20.757 12.356 20.627 12.48 20.474 12.491 L 18.523 12.621 L 20.191 13.785 C 20.311 13.868 20.374 14.024 20.356 14.18 L 20.349 14.227 L 20.2 14.907 C 20.163 15.079 20.033 15.203 19.88 15.213 L 17.929 15.344 L 19.597 16.507 C 19.717 16.59 19.78 16.746 19.762 16.902 L 19.754 16.949 L 19.606 17.629 C 19.568 17.801 19.438 17.925 19.286 17.935 L 17.335 18.067 L 19.003 19.23 C 19.122 19.313 19.186 19.468 19.168 19.625 L 19.16 19.672 L 19.012 20.352 C 18.974 20.524 18.844 20.648 18.692 20.658 L 16.74 20.789 L 18.409 21.952 C 18.528 22.035 18.591 22.191 18.574 22.347 L 18.566 22.394 L 18.418 23.074 C 18.38 23.246 18.25 23.37 18.097 23.38 L 15.361 23.622 L 15.021 25.082 L 12.836 25.082 L 13.511 22.399 C 13.549 22.228 13.679 22.104 13.832 22.094 L 15.782 21.962 L 14.114 20.799 C 13.992 20.707 13.929 20.556 13.949 20.404 L 13.957 20.358 L 14.106 19.677 C 14.143 19.506 14.273 19.382 14.426 19.371 L 16.376 19.24 L 14.709 18.077 C 14.587 17.985 14.524 17.834 14.544 17.682 L 14.551 17.635 L 14.7 16.955 C 14.737 16.783 14.867 16.659 15.02 16.649 L 16.971 16.517 L 15.303 15.355 C 15.181 15.263 15.118 15.112 15.138 14.96 L 15.146 14.913 L 15.294 14.233 C 15.331 14.061 15.461 13.937 15.614 13.927 L 17.565 13.795 L 15.897 12.632 C 15.775 12.54 15.712 12.389 15.732 12.237 L 15.74 12.19 L 15.888 11.51 C 15.926 11.338 16.056 11.214 16.208 11.204 L 18.16 11.073 L 16.49 9.91 C 16.368 9.818 16.305 9.667 16.325 9.515 L 16.333 9.468 L 16.637 8.387 L 19.046 8.294 L 19.047 8.294 Z M 20.727 0.151 C 21.623 0.151 22.287 0.456 22.717 1.066 C 23.15 1.676 23.279 2.406 23.107 3.256 C 22.912 4.231 22.51 4.888 21.901 5.23 C 21.291 5.57 20.533 5.742 19.626 5.742 C 18.741 5.742 18.075 5.476 17.627 4.944 C 17.179 4.412 17.052 3.654 17.247 2.669 C 17.43 1.774 17.832 1.13 18.453 0.739 C 19.073 0.347 19.831 0.151 20.727 0.151 Z"/>
  </g>
</svg>