<?xml version="1.0" encoding="utf-8"?>
<svg viewBox="0 0 80 80" xmlns="http://www.w3.org/2000/svg">
  <g transform="matrix(0.1343909949064255, 0, 0, 0.31356796622276306, 2.842170943040401e-14, 0.0012520001223776944)" style=""/>
  <path d="M 21.582 69.372 C 11.61 63.204 4.964 52.17 4.964 39.582 C 4.964 20.251 20.634 4.582 39.964 4.582 C 47.287 4.57 54.43 6.868 60.376 11.147 C 60.085 37.261 44.193 59.63 21.582 69.372 Z" fill="#6875F5" style="" transform="matrix(1, 0, 0, 1, 2.842170943040401e-14, 0)"/>
  <path d="M 25.576 71.498 C 30.097 73.537 35.002 74.589 39.964 74.582 C 59.294 74.582 74.964 58.913 74.964 39.582 C 74.964 34.454 73.862 29.584 71.88 25.194 C 65.085 47.278 47.66 64.703 25.578 71.498 L 25.576 71.498 Z" fill="#6875F5" style="" transform="matrix(1, 0, 0, 1, 2.842170943040401e-14, 0)"/>
</svg>