<?xml version="1.0" encoding="utf-8"?>
<svg viewBox="0 0 45 39" xmlns="http://www.w3.org/2000/svg">
  <path fill-rule="evenodd" clip-rule="evenodd" d="M 37.553 30.905 C 36.873 31.933 36.358 33.199 34.976 33.199 C 32.65 33.199 32.524 29.612 30.196 29.612 C 27.869 29.612 27.995 33.199 25.669 33.199 C 23.343 33.199 23.217 29.612 20.889 29.612 C 18.562 29.612 18.688 33.199 16.361 33.199 C 14.035 33.199 13.909 29.612 11.581 29.612 C 9.253 29.612 9.381 33.199 7.053 33.199 C 6.322 33.199 5.808 32.845 5.375 32.359 C 3.647 29.339 2.743 25.918 2.753 22.439 C 2.753 11.812 10.961 3.199 21.086 3.199 C 31.213 3.199 39.42 11.813 39.42 22.439 C 39.42 25.476 38.749 28.349 37.554 30.905 L 37.553 30.905 Z" fill="#FB70A9" transform="matrix(1, 0, 0, 1, 1.4210854715202004e-14, 0)"/>
  <path fill-rule="evenodd" clip-rule="evenodd" d="M 37.553 30.905 C 36.873 31.933 36.358 33.199 34.976 33.199 C 32.65 33.199 32.524 29.612 30.196 29.612 C 27.869 29.612 27.995 33.199 25.669 33.199 C 23.343 33.199 23.217 29.612 20.889 29.612 C 18.562 29.612 18.688 33.199 16.361 33.199 C 14.035 33.199 13.909 29.612 11.581 29.612 C 9.253 29.612 9.381 33.199 7.053 33.199 C 6.322 33.199 5.808 32.845 5.375 32.359 C 3.647 29.339 2.743 25.918 2.753 22.439 C 2.753 11.812 10.961 3.199 21.086 3.199 C 31.213 3.199 39.42 11.813 39.42 22.439 C 39.42 25.476 38.749 28.349 37.554 30.905 L 37.553 30.905 Z" fill="#FB70A9" transform="matrix(1, 0, 0, 1, 1.4210854715202004e-14, 0)"/>
  <path fill-rule="evenodd" clip-rule="evenodd" d="M 33.587 32.816 C 38.391 25.669 38.516 17.741 33.959 9.032 C 37.469 12.627 39.43 17.455 39.42 22.479 C 39.42 25.505 38.725 28.369 37.486 30.913 C 36.781 31.937 36.246 33.199 34.813 33.199 C 34.323 33.199 33.927 33.051 33.587 32.816 Z" fill="#E24CA6" transform="matrix(1, 0, 0, 1, 1.4210854715202004e-14, 0)"/>
  <path fill-rule="evenodd" clip-rule="evenodd" d="M 20.103 27.237 C 26.479 27.237 29.163 23.539 29.163 18.287 C 29.163 13.033 25.108 8.199 20.103 8.199 C 15.1 8.199 11.044 13.034 11.044 18.286 C 11.044 23.539 13.728 27.237 20.104 27.237 L 20.103 27.237 Z" fill="#fff" transform="matrix(1, 0, 0, 1, 1.4210854715202004e-14, 0)"/>
  <path d="M 17.668 18.584 C 19.544 18.584 21.065 16.904 21.065 14.834 C 21.065 12.763 19.545 11.084 17.668 11.084 C 15.792 11.084 14.271 12.763 14.271 14.834 C 14.271 16.904 15.791 18.584 17.668 18.584 Z" fill="#030776" transform="matrix(1, 0, 0, 1, 1.4210854715202004e-14, 0)"/>
  <path d="M 17.103 15.699 C 18.04 15.699 18.801 14.924 18.801 13.969 C 18.801 13.012 18.041 12.238 17.102 12.238 C 16.164 12.238 15.403 13.012 15.403 13.968 C 15.403 14.924 16.163 15.699 17.103 15.699 Z" fill="#fff" transform="matrix(1, 0, 0, 1, 1.4210854715202004e-14, 0)"/>
</svg>