<?xml version="1.0" encoding="utf-8"?>
<svg viewBox="0 0 80 80" xmlns="http://www.w3.org/2000/svg">
  <defs>
    <radialGradient cx="-4.619%" cy="6.646%" r="101.342%" gradientTransform="matrix(.8299 .53351 -.5579 .79363 .03 .038)" id="a">
      <stop stop-color="#00FFC4" offset="0"/>
      <stop stop-color="#00E1FF" offset="1"/>
    </radialGradient>
  </defs>
  <g transform="matrix(0.1343909949064255, 0, 0, 0.31356796622276306, 0, 0.0012520001223634836)" style=""/>
  <g fill-rule="nonzero" fill="none" transform="matrix(2.3028259277343754, 0, 0, 2.202213048934937, 0.0005870000546792653, 0.00009900001316509588)">
    <path d="M 30.343 9.99 C 36.187 15.752 36.208 25.175 30.389 30.962 C 26.933 34.407 22.25 36.337 17.37 36.327 C 11.935 36.339 6.774 33.946 3.272 29.79 C 10.481 35.745 21.217 35.371 27.985 28.672 C 27.985 28.672 32.544 16.822 27.985 12.327 C 23.425 7.813 16.032 7.813 11.472 12.327 C 9.517 14.253 9.517 17.407 11.472 19.333 C 13.434 21.268 16.587 21.268 18.549 19.333 C 19.203 18.688 20.254 18.688 20.908 19.333 C 21.558 19.975 21.558 21.024 20.908 21.666 C 17.638 24.89 12.384 24.89 9.114 21.666 C 5.859 18.456 5.859 13.202 9.114 9.992 C 14.975 4.187 24.48 4.187 30.343 9.992 L 30.343 9.99 Z M 17.37 0 C 22.804 -0.012 27.966 2.382 31.467 6.538 C 31.467 6.538 13.52 0.958 6.756 7.653 L 6.756 7.655 C 2.197 12.15 2.197 19.506 6.756 24.001 C 11.314 28.516 18.706 28.516 23.266 24.001 C 25.22 22.075 25.22 18.922 23.266 16.996 C 21.304 15.061 18.151 15.061 16.189 16.996 C 15.535 17.64 14.485 17.64 13.831 16.996 C 13.18 16.354 13.18 15.304 13.831 14.662 C 17.101 11.438 22.355 11.438 25.625 14.662 C 28.88 17.872 28.88 23.126 25.625 26.336 C 19.763 32.141 10.258 32.141 4.395 26.336 C -1.458 20.565 -1.466 11.124 4.375 5.342 C 7.828 1.911 12.502 -0.01 17.37 0 Z" fill="url(#a)"/>
  </g>
</svg>