<?xml version="1.0" encoding="utf-8"?>
<svg viewBox="0 0 80 80" xmlns="http://www.w3.org/2000/svg">
  <g transform="matrix(0.13439099490642548, 0, 0, 0.3135679662227631, 5.684341886080802e-14, 0.0012520001223776944)" style="">
    <path class="bg-gray-600 text-blue-600" fill="#197593" d="M0,9.77A10,10,0,0,1,10.26,0H585a10,10,0,0,1,10.28,9.77V245.36A10,10,0,0,1,585,255.12H10.26A10,10,0,0,1,0,245.36V9.77Z"/>
  </g>
  <g transform="matrix(0.5109349489212037, 0, 0, 0.4999650120735169, -24.31441534034036, -25.231436151734528)" style="">
    <path d="M95.6,156.66l10.87-14.84c6.46,5.32,13.82,8.95,21.52,8.95,5.44,0,8.27-2.38,8.27-5.78v-0.11c0-3.17-2.38-5.1-11.67-8.38-14.95-5.1-25.48-10.53-25.48-24.92v-0.34c0-14.38,11-24.46,28.31-24.46,10.65,0,20,2.94,28.31,9.63l-10.31,15.17c-5.44-4.19-12-7.25-18.46-7.25-4.64,0-7.25,2.27-7.25,5.21v0.11c0,3.51,2.49,5.32,12.57,9.06,15.06,4.87,24.46,11,24.46,24.46v0.23c0,15.4-11.89,24.92-28.88,24.92A48.26,48.26,0,0,1,95.6,156.66Z" class="fill-current text-white" style="fill: rgb(255, 255, 255);"/>
  </g>
</svg>