<?xml version="1.0" encoding="utf-8"?>
<svg viewBox="0 0 59 44" xmlns="http://www.w3.org/2000/svg">
  <path fill-rule="evenodd" clip-rule="evenodd" d="M 29.474 7.061 C 22.669 7.061 18.417 10.443 16.715 17.207 C 19.267 13.825 22.244 12.557 25.646 13.402 C 27.587 13.884 28.975 15.284 30.51 16.834 C 33.012 19.358 35.908 22.279 42.232 22.279 C 49.036 22.279 53.289 18.897 54.99 12.134 C 52.439 15.516 49.462 16.784 46.06 15.938 C 44.118 15.456 42.73 14.056 41.195 12.507 C 38.693 9.981 35.798 7.061 29.474 7.061 Z M 16.715 22.279 C 9.911 22.279 5.658 25.661 3.957 32.425 C 6.509 29.043 9.486 27.775 12.887 28.62 C 14.829 29.102 16.217 30.502 17.752 32.052 C 20.254 34.576 23.149 37.497 29.474 37.497 C 36.278 37.497 40.531 34.116 42.232 27.352 C 39.68 30.734 36.703 32.002 33.301 31.157 C 31.36 30.674 29.972 29.274 28.437 27.725 C 25.935 25.201 23.039 22.279 16.715 22.279 Z" fill="#38bdf8" transform="matrix(1, 0, 0, 1, 1.4210854715202004e-14, 0)"/>
</svg>